<svg width="669" height="345" viewBox="0 0 669 345" fill="none" xmlns="http://www.w3.org/2000/svg">
<g filter="url(#filter0_df_280_488)">
<path fill-rule="evenodd" clip-rule="evenodd" d="M430.649 5C430.099 4.38625 429.301 4 428.412 4C426.756 4 425.412 5.34315 425.412 7C425.412 8.65685 426.756 10 428.412 10C429.719 10 430.83 9.16519 431.242 8H462.604L485.638 43.0316L462.131 81.7211L461.657 82.5L462.131 83.2789L486.131 122.779L486.569 123.5H487.412H533.912H534.754L535.192 122.782L556.596 87.7573C557.665 87.2981 558.412 86.2364 558.412 85C558.412 83.3431 557.069 82 555.412 82C553.756 82 552.412 83.3431 552.412 85C552.412 85.8843 552.795 86.6793 553.404 87.2284L533.071 120.5H488.256L465.168 82.5L488.694 43.7789L489.187 42.9684L488.666 42.1759L464.666 5.67589L464.221 5H463.412H430.649ZM393.913 25H393.032L392.603 25.7687L371.103 64.2687L370.702 64.9862L371.091 65.7102L392.194 104.971L371.549 140.5H326.413V143.5H372.413H373.276L373.709 142.754L395.209 105.754L395.631 105.029L395.234 104.29L374.123 65.0138L394.793 28H434.583C434.995 29.1652 436.106 30 437.412 30C439.069 30 440.412 28.6569 440.412 27C440.412 25.3431 439.069 24 437.412 24C436.369 24 435.45 24.5327 434.913 25.341V25H393.913ZM329.913 71.5H329.022L328.596 72.2817L321.606 85.096L303.439 85.1579L288.774 58.4894L286.146 59.935L301.239 87.3837L301.668 88.164L302.559 88.1609L319.967 88.1016L318.327 91.1072L299.911 91.17L276.721 53.4673L276.28 52.7502L275.438 52.7531L232.438 52.8996L231.596 52.9024L231.16 53.6224L208.228 91.4823L161.57 91.6412L160.735 91.644L160.298 92.3545L151.785 106.175L144.619 106.199L144.62 106.463C144.088 105.99 143.386 105.703 142.618 105.706C140.961 105.711 139.622 107.059 139.628 108.716C139.633 110.373 140.981 111.711 142.638 111.706C144.124 111.701 145.355 110.615 145.588 109.196L152.629 109.172L153.464 109.169L153.901 108.458L162.414 94.6383L208.191 94.4824L227.886 130.136L229.824 129.065C229.139 129.618 228.702 130.465 228.706 131.413C228.711 133.07 230.059 134.408 231.716 134.402C233.373 134.397 234.711 133.049 234.706 131.392C234.7 129.735 233.352 128.397 231.695 128.403C231.268 128.404 230.863 128.495 230.496 128.657L210.807 93.014L233.29 55.8967L274.606 55.756L297.796 93.4587L298.237 94.1757L299.079 94.1728L302.439 94.1614C301.26 94.5656 300.413 95.6838 300.413 97C300.413 98.6569 301.756 100 303.413 100C305.069 100 306.413 98.6569 306.413 97C306.413 95.6766 305.556 94.5533 304.366 94.1548L316.688 94.1128L310.596 105.282L310.191 106.023L310.615 106.753L327.081 135.111C326.663 135.627 326.413 136.284 326.413 137C326.413 138.657 327.756 140 329.413 140C331.069 140 332.413 138.657 332.413 137C332.413 135.52 331.341 134.29 329.931 134.045L313.634 105.977L320.111 94.1012L340.579 94.0315L340.569 91.0315L321.751 91.0956L323.39 88.09L339.058 88.0366L339.048 85.0366L325.03 85.0844L330.803 74.5H367.563L384.889 103.377C384.588 103.845 384.412 104.402 384.412 105C384.412 106.657 385.756 108 387.412 108C389.069 108 390.412 106.657 390.412 105C390.412 103.394 389.151 102.083 387.564 102.004L369.699 72.2283L369.262 71.5H368.413H329.913ZM329.413 137.5C329.322 137.5 329.238 137.476 329.165 137.434L329.913 137C329.913 137.276 329.689 137.5 329.413 137.5ZM360.913 181.5H355.413V180V178.5H377.413H378.229L378.673 179.186L393.729 202.5H431.913V203.341C432.45 202.533 433.369 202 434.412 202C436.069 202 437.412 203.343 437.412 205C437.412 206.657 436.069 208 434.412 208C432.926 208 431.692 206.919 431.454 205.5H392.913H392.096L391.652 204.814L376.596 181.5H370.101L387.25 215.322L384.575 216.678L366.738 181.5H362.62L374.73 203.784L374.987 204.257L374.885 204.785L371.958 219.911L374.843 229.048L371.982 229.952L368.982 220.452L368.868 220.089L368.94 219.715L371.838 204.743L359.595 182.216L360.913 181.5ZM355.413 180C355.413 181.657 354.069 183 352.413 183C350.756 183 349.413 181.657 349.413 180C349.413 178.343 350.756 177 352.413 177C354.069 177 355.413 178.343 355.413 180ZM396.413 123.5H395.559L395.123 124.233L373.822 160.058C372.448 160.332 371.413 161.545 371.413 163C371.413 164.657 372.756 166 374.413 166C376.069 166 377.413 164.657 377.413 163C377.413 162.265 377.148 161.592 376.71 161.071L394.425 131.277C394.522 132.334 395.167 133.233 396.074 133.686L379.644 159.699L379.18 160.434L379.587 161.202L397.587 195.202L398.009 196H398.912H437.412H438.257L438.695 195.278L456.756 165.502C457.231 165.817 457.8 166 458.412 166C458.865 166 459.295 165.9 459.68 165.72L440.595 200.783L440.205 201.5L440.595 202.217L462.095 241.717L462.521 242.5H463.413H503.413V241.01C503.418 242.662 504.759 244 506.412 244C508.069 244 509.412 242.657 509.412 241C509.412 239.343 508.069 238 506.412 238C504.759 238 503.418 239.338 503.413 240.99V239.5H464.304L443.62 201.5L464.73 162.717L465.133 161.976L464.709 161.246L443.209 124.246L442.776 123.5H441.913H396.413ZM461.384 162.588L461.692 162.024L441.049 126.5H397.266L396.23 128.242C396.593 128.086 396.993 128 397.412 128C399.069 128 400.412 129.343 400.412 131C400.412 131.605 400.233 132.168 399.925 132.64L400.181 132.801L382.645 160.566L399.816 193H436.568L454.63 163.222L455.508 163.755C455.446 163.514 455.412 163.261 455.412 163C455.412 161.343 456.756 160 458.412 160C459.93 160 461.184 161.126 461.384 162.588ZM397.644 131.199L397.81 131.304C397.874 131.219 397.912 131.114 397.912 131C397.912 130.724 397.689 130.5 397.412 130.5C397.136 130.5 396.912 130.724 396.912 131C396.912 131.276 397.136 131.5 397.412 131.5C397.427 131.5 397.441 131.499 397.455 131.498L397.644 131.199ZM383.412 67C383.412 67.6012 383.236 68.1612 382.931 68.6306L397.279 93.5H430.814C431.333 92.6033 432.302 92 433.412 92C435.069 92 436.412 93.3431 436.412 95C436.412 96.6569 435.069 98 433.412 98C432.302 98 431.333 97.3967 430.814 96.5H396.412H395.546L395.113 95.7496L380.255 69.996C378.672 69.9142 377.412 68.6041 377.412 67C377.412 65.3431 378.756 64 380.412 64C382.069 64 383.412 65.3431 383.412 67ZM424.821 33.5H406.412V33.0137C406.405 34.6642 405.065 36 403.413 36C401.756 36 400.413 34.6569 400.413 33C400.413 31.3431 401.756 30 403.413 30C405.065 30 406.405 31.3358 406.412 32.9863V30.5H425.412H426.004L426.436 30.9034L433.504 37.5H453.912V40.5H432.912H432.321L431.889 40.0966L424.821 33.5ZM441.228 214.279L460.801 250H506.578L515.138 236.209L515.578 235.5H516.413H523.454C523.692 234.081 524.926 233 526.412 233C528.069 233 529.412 234.343 529.412 236C529.412 237.657 528.069 239 526.412 239C525.644 239 524.943 238.711 524.413 238.236V238.5H517.247L508.687 252.291L508.247 253H507.413H460.754L437.693 290.781L437.254 291.5H436.413H393.413H392.571L392.132 290.781L371.468 256.927L360.898 256.963L345.42 278.398L344.973 279.018L344.209 279.02L328.038 279.075C327.631 280.242 326.522 281.08 325.216 281.085C323.559 281.091 322.211 279.752 322.206 278.095C322.2 276.438 323.539 275.091 325.195 275.085C326.084 275.082 326.884 275.465 327.435 276.077L343.435 276.023L358.913 254.588L359.36 253.968L360.124 253.966L369.641 253.933L369.071 253H351.145L341.001 271.749L340.577 272.533L339.687 272.536L301.187 272.667L300.338 272.67L299.898 271.943L281.932 242.228C280.345 242.155 279.079 240.848 279.073 239.242C279.068 237.585 280.406 236.237 282.063 236.232C283.72 236.226 285.067 237.565 285.073 239.221C285.075 239.82 284.902 240.377 284.602 240.846L302.026 269.664L338.786 269.539L347.734 253H328.413V250H349.357L355.848 238.003L339.455 209.991C338.045 209.751 336.969 208.524 336.964 207.044C336.958 205.388 338.297 204.04 339.954 204.034C341.61 204.029 342.958 205.367 342.964 207.024C342.966 207.74 342.718 208.398 342.301 208.915L358.864 237.217L359.29 237.946L358.889 238.688L352.768 250H369.913H370.754L371.193 250.719L373.148 253.921L382.294 253.89C382.702 252.724 383.811 251.885 385.117 251.881C386.774 251.875 388.121 253.214 388.127 254.87C388.133 256.527 386.794 257.875 385.137 257.881C384.249 257.884 383.449 257.5 382.898 256.888L374.975 256.915L394.254 288.5H435.571L458.18 251.459L438.613 215.75C438.245 215.911 437.839 216 437.412 216C435.756 216 434.412 214.657 434.412 213C434.412 211.343 435.756 210 437.412 210C439.069 210 440.412 211.343 440.412 213C440.412 213.948 439.972 214.794 439.286 215.344L441.228 214.279ZM490.912 50.5H489.992L489.575 51.321L473.547 82.8917C473.003 82.3412 472.247 82 471.412 82C469.756 82 468.412 83.3431 468.412 85C468.412 86.6569 469.756 88 471.412 88C473.069 88 474.412 86.6569 474.412 85C474.412 84.8216 474.397 84.6468 474.367 84.4769L475.75 85.179L491.833 53.5H528.04L545.669 84.4694L528.553 112.225C528.202 112.08 527.816 112 527.412 112C525.756 112 524.412 113.343 524.412 115C524.412 116.657 525.756 118 527.412 118C529.069 118 530.412 116.657 530.412 115C530.412 114.976 530.412 114.951 530.412 114.927L548.689 85.2873L549.156 84.5306L548.716 83.7579L530.216 51.258L529.785 50.5H528.912H490.912ZM531.046 152H500.242C499.83 153.165 498.719 154 497.412 154C495.756 154 494.412 152.657 494.412 151C494.412 149.343 495.756 148 497.412 148C498.301 148 499.099 148.386 499.649 149H531.912H532.779L533.212 149.75L548.212 175.75L547.747 176.018C549.246 176.185 550.412 177.456 550.412 179C550.412 180.657 549.069 182 547.412 182C545.756 182 544.412 180.657 544.412 179C544.412 178.137 544.777 177.359 545.36 176.812L531.046 152ZM474.412 210.5H495.894L502.486 215.679L502.894 216H503.412H523.912V213H503.931L497.339 207.821L496.931 207.5H496.412H474.412V208C474.412 206.343 473.069 205 471.412 205C469.756 205 468.412 206.343 468.412 208C468.412 209.657 469.756 211 471.412 211C473.069 211 474.412 209.657 474.412 208V210.5ZM556.048 103.5H556.912H602.912H603.78L604.213 104.252L624.78 140H664.912V143H623.912H623.045L622.612 142.248L602.045 106.5H600.071C600.88 107.037 601.412 107.957 601.412 109C601.412 110.657 600.069 112 598.412 112C596.756 112 595.412 110.657 595.412 109C595.412 107.957 595.945 107.037 596.754 106.5H557.777L536.635 143.019L558.227 182.277L558.632 183.014L558.215 183.744L536.215 222.244L535.783 223H534.912H494.412V222V220H534.042L555.193 182.986L533.598 143.723L533.19 142.981L533.614 142.248L555.614 104.248L556.048 103.5ZM494.412 222C494.412 220.343 493.069 219 491.412 219C489.756 219 488.412 220.343 488.412 222C488.412 223.657 489.756 225 491.412 225C493.069 225 494.412 223.657 494.412 222ZM618.245 141.311L602.745 111.311L600.08 112.689L615.209 141.971L597.534 173.5H561.307L545.48 144.173C546.055 143.627 546.412 142.855 546.412 142C546.412 140.343 545.069 139 543.412 139C541.756 139 540.412 140.343 540.412 142C540.412 143.312 541.255 144.428 542.428 144.835L559.092 175.712L559.517 176.5H560.412H598.412H599.291L599.721 175.734L618.221 142.734L618.616 142.029L618.245 141.311ZM557.411 18.2378L560.327 26.5008L560.472 26.9122L560.374 27.3373L557.507 39.7619L571.779 64.5H573.412V66V67.5H570.912H562.662H551.912H551.081L550.641 66.795L536.081 43.5H496.912V40.5H536.912H537.744L538.184 41.205L552.744 64.5H560.152L544.225 34.8886C543.967 34.9612 543.694 35 543.412 35C541.756 35 540.412 33.6569 540.412 32C540.412 30.3431 541.756 29 543.412 29C545.069 29 546.412 30.3431 546.412 32C546.412 32.1823 546.396 32.3607 546.365 32.534L563.559 64.5H568.315L554.613 40.7496L554.318 40.2381L554.451 39.6627L557.353 27.0878L554.498 18.9992L554.722 18.9202C553.398 18.6083 552.412 17.4192 552.412 16C552.412 14.3431 553.756 13 555.412 13C557.069 13 558.412 14.3431 558.412 16C558.412 16.8894 558.025 17.6884 557.411 18.2378ZM573.412 66C573.412 64.3431 574.756 63 576.412 63C578.069 63 579.412 64.3431 579.412 66C579.412 67.6569 578.069 69 576.412 69C574.756 69 573.412 67.6569 573.412 66ZM303.913 97C303.913 97.2761 303.689 97.5 303.413 97.5C303.136 97.5 302.913 97.2761 302.913 97C302.913 96.7239 303.136 96.5 303.413 96.5C303.689 96.5 303.913 96.7239 303.913 97ZM387.912 105C387.912 105.276 387.689 105.5 387.412 105.5C387.136 105.5 386.912 105.276 386.912 105C386.912 104.724 387.136 104.5 387.412 104.5C387.689 104.5 387.912 104.724 387.912 105ZM380.412 67.5C380.689 67.5 380.912 67.2761 380.912 67C380.912 66.7239 380.689 66.5 380.412 66.5C380.136 66.5 379.912 66.7239 379.912 67C379.912 67.2761 380.136 67.5 380.412 67.5ZM433.912 95C433.912 95.2761 433.689 95.5 433.412 95.5C433.136 95.5 432.912 95.2761 432.912 95C432.912 94.7239 433.136 94.5 433.412 94.5C433.689 94.5 433.912 94.7239 433.912 95ZM374.913 163C374.913 163.276 374.689 163.5 374.413 163.5C374.136 163.5 373.913 163.276 373.913 163C373.913 162.724 374.136 162.5 374.413 162.5C374.689 162.5 374.913 162.724 374.913 163ZM352.413 180.5C352.689 180.5 352.913 180.276 352.913 180C352.913 179.724 352.689 179.5 352.413 179.5C352.136 179.5 351.913 179.724 351.913 180C351.913 180.276 352.136 180.5 352.413 180.5ZM374.913 233C374.913 233.276 374.689 233.5 374.413 233.5C374.136 233.5 373.913 233.276 373.913 233C373.913 232.724 374.136 232.5 374.413 232.5C374.689 232.5 374.913 232.724 374.913 233ZM377.413 233C377.413 234.657 376.069 236 374.413 236C372.756 236 371.413 234.657 371.413 233C371.413 231.343 372.756 230 374.413 230C376.069 230 377.413 231.343 377.413 233ZM387.412 219.5C387.689 219.5 387.912 219.276 387.912 219C387.912 218.724 387.689 218.5 387.412 218.5C387.136 218.5 386.912 218.724 386.912 219C386.912 219.276 387.136 219.5 387.412 219.5ZM387.412 222C389.069 222 390.412 220.657 390.412 219C390.412 217.343 389.069 216 387.412 216C385.756 216 384.412 217.343 384.412 219C384.412 220.657 385.756 222 387.412 222ZM434.912 205C434.912 205.276 434.689 205.5 434.412 205.5C434.136 205.5 433.912 205.276 433.912 205C433.912 204.724 434.136 204.5 434.412 204.5C434.689 204.5 434.912 204.724 434.912 205ZM437.412 213.5C437.689 213.5 437.912 213.276 437.912 213C437.912 212.724 437.689 212.5 437.412 212.5C437.136 212.5 436.912 212.724 436.912 213C436.912 213.276 437.136 213.5 437.412 213.5ZM458.912 163C458.912 163.276 458.689 163.5 458.412 163.5C458.136 163.5 457.912 163.276 457.912 163C457.912 162.724 458.136 162.5 458.412 162.5C458.689 162.5 458.912 162.724 458.912 163ZM471.412 208.5C471.689 208.5 471.912 208.276 471.912 208C471.912 207.724 471.689 207.5 471.412 207.5C471.136 207.5 470.912 207.724 470.912 208C470.912 208.276 471.136 208.5 471.412 208.5ZM491.912 222C491.912 222.276 491.689 222.5 491.412 222.5C491.136 222.5 490.912 222.276 490.912 222C490.912 221.724 491.136 221.5 491.412 221.5C491.689 221.5 491.912 221.724 491.912 222ZM497.412 151.5C497.689 151.5 497.912 151.276 497.912 151C497.912 150.724 497.689 150.5 497.412 150.5C497.136 150.5 496.912 150.724 496.912 151C496.912 151.276 497.136 151.5 497.412 151.5ZM543.912 142C543.912 142.276 543.689 142.5 543.412 142.5C543.136 142.5 542.912 142.276 542.912 142C542.912 141.724 543.136 141.5 543.412 141.5C543.689 141.5 543.912 141.724 543.912 142ZM547.412 179.5C547.689 179.5 547.912 179.276 547.912 179C547.912 178.724 547.689 178.5 547.412 178.5C547.136 178.5 546.912 178.724 546.912 179C546.912 179.276 547.136 179.5 547.412 179.5ZM527.912 214C527.912 214.276 527.689 214.5 527.412 214.5C527.136 214.5 526.912 214.276 526.912 214C526.912 213.724 527.136 213.5 527.412 213.5C527.689 213.5 527.912 213.724 527.912 214ZM530.412 214C530.412 215.657 529.069 217 527.412 217C525.756 217 524.412 215.657 524.412 214C524.412 212.343 525.756 211 527.412 211C529.069 211 530.412 212.343 530.412 214ZM506.412 241.5C506.689 241.5 506.912 241.276 506.912 241C506.912 240.724 506.689 240.5 506.412 240.5C506.136 240.5 505.912 240.724 505.912 241C505.912 241.276 506.136 241.5 506.412 241.5ZM526.912 236C526.912 236.276 526.689 236.5 526.412 236.5C526.136 236.5 525.912 236.276 525.912 236C525.912 235.724 526.136 235.5 526.412 235.5C526.689 235.5 526.912 235.724 526.912 236ZM527.412 115.5C527.689 115.5 527.912 115.276 527.912 115C527.912 114.724 527.689 114.5 527.412 114.5C527.136 114.5 526.912 114.724 526.912 115C526.912 115.276 527.136 115.5 527.412 115.5ZM403.913 33C403.913 33.2761 403.689 33.5 403.413 33.5C403.136 33.5 402.913 33.2761 402.913 33C402.913 32.7239 403.136 32.5 403.413 32.5C403.689 32.5 403.913 32.7239 403.913 33ZM437.412 27.5C437.689 27.5 437.912 27.2761 437.912 27C437.912 26.7239 437.689 26.5 437.412 26.5C437.136 26.5 436.912 26.7239 436.912 27C436.912 27.2761 437.136 27.5 437.412 27.5ZM471.412 85.5C471.689 85.5 471.912 85.2761 471.912 85C471.912 84.7239 471.689 84.5 471.412 84.5C471.136 84.5 470.912 84.7239 470.912 85C470.912 85.2761 471.136 85.5 471.412 85.5ZM493.912 42C493.912 42.2761 493.689 42.5 493.412 42.5C493.136 42.5 492.912 42.2761 492.912 42C492.912 41.7239 493.136 41.5 493.412 41.5C493.689 41.5 493.912 41.7239 493.912 42ZM496.412 42C496.412 43.6569 495.069 45 493.412 45C491.756 45 490.412 43.6569 490.412 42C490.412 40.3431 491.756 39 493.412 39C495.069 39 496.412 40.3431 496.412 42ZM543.412 32.5C543.689 32.5 543.912 32.2761 543.912 32C543.912 31.7239 543.689 31.5 543.412 31.5C543.136 31.5 542.912 31.7239 542.912 32C542.912 32.2761 543.136 32.5 543.412 32.5ZM555.912 16C555.912 16.2761 555.689 16.5 555.412 16.5C555.136 16.5 554.912 16.2761 554.912 16C554.912 15.7239 555.136 15.5 555.412 15.5C555.689 15.5 555.912 15.7239 555.912 16ZM598.412 109.5C598.689 109.5 598.912 109.276 598.912 109C598.912 108.724 598.689 108.5 598.412 108.5C598.136 108.5 597.912 108.724 597.912 109C597.912 109.276 598.136 109.5 598.412 109.5ZM555.912 85C555.912 85.2761 555.689 85.5 555.412 85.5C555.136 85.5 554.912 85.2761 554.912 85C554.912 84.7239 555.136 84.5 555.412 84.5C555.689 84.5 555.912 84.7239 555.912 85ZM576.412 66.5C576.689 66.5 576.912 66.2761 576.912 66C576.912 65.7239 576.689 65.5 576.412 65.5C576.136 65.5 575.912 65.7239 575.912 66C575.912 66.2761 576.136 66.5 576.412 66.5ZM284.913 89C284.913 89.2761 284.689 89.5 284.413 89.5C284.136 89.5 283.913 89.2761 283.913 89C283.913 88.7239 284.136 88.5 284.413 88.5C284.689 88.5 284.913 88.7239 284.913 89ZM287.413 89C287.413 90.6569 286.069 92 284.413 92C282.756 92 281.413 90.6569 281.413 89C281.413 87.3431 282.756 86 284.413 86C286.069 86 287.413 87.3431 287.413 89ZM344.413 66.5C344.689 66.5 344.913 66.2761 344.913 66C344.913 65.7239 344.689 65.5 344.413 65.5C344.136 65.5 343.913 65.7239 343.913 66C343.913 66.2761 344.136 66.5 344.413 66.5ZM344.413 69C346.069 69 347.413 67.6569 347.413 66C347.413 64.3431 346.069 63 344.413 63C342.756 63 341.413 64.3431 341.413 66C341.413 67.6569 342.756 69 344.413 69ZM239.178 339.378C239.729 339.99 240.529 340.374 241.417 340.371C243.074 340.365 244.413 339.017 244.407 337.36C244.402 335.704 243.054 334.365 241.397 334.371C240.091 334.375 238.982 335.214 238.574 336.38L207.213 336.487L184.059 301.534L207.435 262.765L207.905 261.984L207.429 261.207L183.295 221.789L182.854 221.069L182.011 221.072L135.511 221.231L134.67 221.234L134.234 221.953L112.949 257.05C111.882 257.513 111.138 258.578 111.142 259.814C111.148 261.471 112.496 262.809 114.152 262.804C115.809 262.798 117.148 261.45 117.142 259.793C117.139 258.909 116.754 258.115 116.143 257.568L136.362 224.228L181.177 224.075L204.395 261.996L181 300.797L180.511 301.61L181.034 302.4L205.159 338.818L205.605 339.493L206.414 339.49L239.178 339.378ZM275.846 319.253L276.726 319.25L277.153 318.48L298.521 279.907L298.92 279.188L298.528 278.466L277.292 239.276L297.815 203.678L342.952 203.524L342.942 200.524L296.942 200.681L296.079 200.684L295.648 201.432L274.274 238.505L273.855 239.231L274.254 239.968L295.499 279.172L274.955 316.256L235.165 316.392C234.749 315.228 233.635 314.397 232.329 314.401C230.672 314.407 229.333 315.755 229.339 317.412C229.345 319.069 230.692 320.407 232.349 320.401C233.393 320.398 234.31 319.862 234.845 319.052L234.846 319.393L275.846 319.253ZM339.464 207.036L340.21 206.599C340.137 206.558 340.052 206.534 339.962 206.534C339.686 206.535 339.463 206.76 339.464 207.036ZM368.926 245.936L402.096 245.823L402.106 248.823L368.343 248.938C367.796 249.553 366.999 249.942 366.11 249.945C364.453 249.951 363.106 248.612 363.1 246.956C363.094 245.299 364.433 243.951 366.09 243.945C367.396 243.941 368.51 244.772 368.926 245.936ZM313.812 162.623L308.312 162.642L309.628 161.921L297.308 139.436L300.155 124.454L300.226 124.08L300.11 123.718L297.078 114.228L294.22 115.141L297.137 124.268L294.26 139.404L294.16 139.933L294.419 140.405L306.605 162.648L302.487 162.662L284.531 127.544L281.859 128.91L299.124 162.673L292.629 162.695L277.493 139.433L277.048 138.748L276.231 138.751L237.69 138.882C237.447 137.464 236.209 136.387 234.723 136.392C233.066 136.398 231.727 137.746 231.733 139.402C231.738 141.059 233.086 142.398 234.743 142.392C235.786 142.389 236.704 141.853 237.238 141.043L237.241 141.884L275.424 141.754L290.56 165.016L291.006 165.701L291.823 165.698L313.823 165.623L313.817 164.123C313.823 165.78 315.171 167.118 316.828 167.113C318.485 167.107 319.823 165.759 319.817 164.103C319.812 162.446 318.464 161.107 316.807 161.113C315.15 161.118 313.812 162.466 313.817 164.123L313.812 162.623ZM273.863 220.759L273.01 220.762L227.51 220.917L226.647 220.92L226.211 220.175L204.585 183.249L204.159 182.521L204.56 181.778L225.537 142.924L204.724 104.994L165.616 105.127L165.611 103.627L165.605 102.127L205.605 101.991L206.497 101.988L206.925 102.77L228.56 142.196L228.953 142.912L228.565 143.63L209.599 178.758C209.984 178.577 210.413 178.475 210.866 178.474C211.478 178.472 212.048 178.653 212.524 178.966L230.483 149.129L230.919 148.405L231.763 148.402L270.263 148.271L271.166 148.268L271.592 149.065L289.707 183.003L290.117 183.77L289.655 184.506L273.314 210.576C274.222 211.025 274.871 211.922 274.971 212.978L292.585 183.125C292.144 182.605 291.878 181.932 291.876 181.198C291.87 179.541 293.208 178.193 294.865 178.188C296.522 178.182 297.87 179.521 297.875 181.177C297.88 182.632 296.849 183.849 295.476 184.128L274.297 220.025L273.863 220.759ZM162.6 100.638C164.257 100.632 165.605 101.971 165.611 103.627C165.616 105.284 164.278 106.632 162.621 106.638C160.964 106.643 159.616 105.305 159.611 103.648C159.605 101.991 160.944 100.643 162.6 100.638ZM213.778 180.709C213.841 180.95 213.875 181.203 213.876 181.464C213.882 183.12 212.543 184.468 210.886 184.474C209.369 184.479 208.111 183.357 207.905 181.896L207.6 182.461L228.363 217.914L272.147 217.765L273.177 216.02C272.814 216.177 272.415 216.264 271.995 216.266C270.338 216.271 268.99 214.933 268.985 213.276C268.983 212.671 269.16 212.107 269.466 211.635L269.21 211.474L286.652 183.649L269.37 151.274L232.618 151.4L214.658 181.239L213.778 180.709ZM271.485 213.268C271.484 213.153 271.522 213.048 271.586 212.964L271.752 213.068L271.94 212.768L271.955 212.767L271.967 212.766L271.983 212.766C272.259 212.765 272.484 212.988 272.485 213.264C272.486 213.54 272.262 213.765 271.986 213.766C271.71 213.767 271.486 213.544 271.485 213.268ZM274.404 248.508L289.349 274.211C290.934 274.287 292.197 275.593 292.203 277.197C292.208 278.854 290.87 280.202 289.213 280.207C287.556 280.213 286.208 278.875 286.203 277.218C286.201 276.617 286.375 276.056 286.678 275.586L272.246 250.765L238.711 250.879C238.196 251.778 237.228 252.384 236.118 252.388C234.461 252.394 233.113 251.055 233.107 249.398C233.102 247.742 234.44 246.394 236.097 246.388C237.208 246.384 238.179 246.984 238.701 247.879L273.102 247.762L273.968 247.759L274.404 248.508ZM263.317 310.796L244.908 310.859L237.818 304.286L237.384 303.884L236.793 303.886L215.793 303.958L215.803 306.958L236.212 306.888L243.302 313.461L243.736 313.863L244.327 313.861L263.327 313.796L263.318 311.296C263.324 312.953 264.672 314.291 266.329 314.286C267.986 314.28 269.324 312.932 269.318 311.275C269.313 309.619 267.965 308.28 266.308 308.286C264.651 308.291 263.313 309.639 263.318 311.296L263.317 310.796ZM178.759 294.084L179.68 294.081L180.094 293.258L196.015 261.633C196.56 262.182 197.317 262.52 198.152 262.518C199.809 262.512 201.147 261.164 201.142 259.507C201.136 257.851 199.788 256.512 198.132 256.518C196.475 256.523 195.136 257.871 195.142 259.528C195.142 259.706 195.159 259.881 195.189 260.051L193.804 259.353L177.828 291.087L141.621 291.21L123.887 260.301L140.908 232.488C141.261 232.631 141.646 232.71 142.05 232.708C143.707 232.703 145.046 231.355 145.04 229.698C145.034 228.041 143.687 226.703 142.03 226.709C140.373 226.714 139.034 228.062 139.04 229.719L139.04 229.754L139.041 229.792L120.864 259.493L120.4 260.252L120.843 261.023L139.453 293.46L139.887 294.216L140.76 294.213L178.759 294.084ZM138.28 192.721L169.084 192.616C169.492 191.45 170.601 190.611 171.907 190.607C173.564 190.601 174.911 191.939 174.917 193.596C174.923 195.253 173.584 196.601 171.927 196.607C171.039 196.61 170.239 196.226 169.688 195.614L137.424 195.724L136.558 195.727L136.122 194.978L121.034 169.029L121.497 168.76C119.998 168.598 118.827 167.331 118.822 165.787C118.816 164.13 120.155 162.783 121.812 162.777C123.469 162.771 124.816 164.11 124.822 165.767C124.825 166.63 124.463 167.409 123.881 167.958L138.28 192.721ZM194.714 134.029L173.233 134.102L166.624 128.945L166.215 128.626L165.696 128.627L145.196 128.697L145.206 131.697L165.187 131.629L171.797 136.786L172.206 137.105L172.725 137.103L194.725 137.029L194.723 136.529C194.728 138.185 196.076 139.524 197.733 139.518C199.39 139.513 200.728 138.165 200.723 136.508C200.717 134.851 199.369 133.513 197.713 133.518C196.056 133.524 194.717 134.872 194.723 136.529L194.714 134.029ZM113.444 241.306L112.579 241.309L66.5795 241.466L65.712 241.469L65.2768 240.718L44.5877 205.04L4.45553 205.177L4.44531 202.177L45.4451 202.037L46.3126 202.034L46.7478 202.785L67.4368 238.463L69.4103 238.456C68.6002 237.921 68.0643 237.004 68.0607 235.961C68.0551 234.304 69.3937 232.956 71.0505 232.95C72.7074 232.945 74.0551 234.283 74.0607 235.94C74.0643 236.984 73.5347 237.904 72.7281 238.445L111.704 238.312L132.722 201.721L110.997 162.537L110.589 161.801L111.004 161.07L132.872 122.495L133.302 121.738L134.172 121.735L174.672 121.597L174.675 122.597L174.682 124.597L135.053 124.732L114.028 161.818L135.756 201.007L136.167 201.747L135.745 202.481L113.875 240.556L113.444 241.306ZM174.675 122.597C174.67 120.94 176.008 119.592 177.665 119.587C179.322 119.581 180.67 120.919 180.675 122.576C180.681 124.233 179.342 125.581 177.685 125.586C176.029 125.592 174.681 124.254 174.675 122.597ZM51.1181 203.707L66.7202 233.654L69.3808 232.267L54.1519 203.037L71.7198 171.448L107.946 171.324L123.873 200.597C123.3 201.145 122.945 201.918 122.948 202.773C122.954 204.43 124.301 205.769 125.958 205.763C127.615 205.757 128.954 204.41 128.948 202.753C128.944 201.441 128.097 200.328 126.922 199.925L110.153 169.104L109.726 168.318L108.831 168.321L70.8308 168.451L69.9521 168.454L69.525 169.222L51.1375 202.284L50.745 202.99L51.1181 203.707ZM112.371 326.572L109.427 318.319L109.28 317.908L109.377 317.483L112.202 305.049L97.8458 280.359L96.2122 280.365L96.207 278.865L96.2019 277.365L98.7019 277.356L106.952 277.328L117.702 277.292L118.533 277.289L118.976 277.992L133.615 301.238L172.783 301.104L172.793 304.104L132.794 304.24L131.962 304.243L131.519 303.54L116.881 280.294L109.472 280.32L125.5 309.877C125.758 309.803 126.031 309.763 126.312 309.763C127.969 309.757 129.317 311.095 129.323 312.752C129.328 314.409 127.99 315.757 126.333 315.762C124.676 315.768 123.328 314.43 123.323 312.773C123.322 312.59 123.338 312.412 123.368 312.239L106.066 280.331L101.309 280.348L115.092 304.051L115.389 304.562L115.258 305.137L112.399 317.722L115.282 325.801L115.058 325.881C116.383 326.188 117.372 327.374 117.377 328.793C117.383 330.45 116.044 331.798 114.387 331.803C112.731 331.809 111.383 330.47 111.377 328.814C111.374 327.924 111.759 327.124 112.371 326.572ZM96.207 278.865C96.2127 280.522 94.8741 281.869 93.2173 281.875C91.5604 281.881 90.2127 280.542 90.2071 278.885C90.2014 277.228 91.54 275.881 93.1968 275.875C94.8537 275.869 96.2014 277.208 96.207 278.865ZM365.6 246.947C365.599 246.671 365.822 246.446 366.098 246.445C366.374 246.444 366.599 246.668 366.6 246.944C366.601 247.22 366.378 247.444 366.102 247.445C365.825 247.446 365.601 247.223 365.6 246.947ZM281.573 239.233C281.572 238.957 281.795 238.733 282.071 238.732C282.348 238.731 282.572 238.954 282.573 239.23C282.574 239.506 282.351 239.731 282.075 239.732C281.799 239.733 281.574 239.509 281.573 239.233ZM289.201 276.708C288.925 276.708 288.702 276.933 288.703 277.209C288.703 277.485 288.928 277.708 289.204 277.708C289.48 277.707 289.703 277.482 289.703 277.206C289.702 276.93 289.477 276.707 289.201 276.708ZM235.607 249.39C235.607 249.114 235.83 248.889 236.106 248.888C236.382 248.887 236.607 249.11 236.607 249.387C236.608 249.663 236.385 249.887 236.109 249.888C235.833 249.889 235.608 249.666 235.607 249.39ZM294.375 181.189C294.375 180.913 294.598 180.689 294.874 180.688C295.15 180.687 295.375 180.91 295.375 181.186C295.376 181.462 295.153 181.687 294.877 181.688C294.601 181.689 294.376 181.465 294.375 181.189ZM316.816 163.613C316.54 163.614 316.317 163.838 316.317 164.115C316.318 164.391 316.543 164.614 316.819 164.613C317.095 164.612 317.318 164.387 317.317 164.111C317.317 163.835 317.092 163.612 316.816 163.613ZM294.137 111.19C294.136 110.914 294.359 110.689 294.635 110.688C294.912 110.687 295.136 110.91 295.137 111.186C295.138 111.462 294.915 111.687 294.639 111.688C294.363 111.689 294.138 111.466 294.137 111.19ZM291.637 111.198C291.631 109.541 292.97 108.194 294.627 108.188C296.284 108.182 297.631 109.521 297.637 111.178C297.643 112.835 296.304 114.182 294.647 114.188C292.99 114.194 291.643 112.855 291.637 111.198ZM281.683 124.732C281.407 124.733 281.184 124.958 281.185 125.234C281.186 125.51 281.41 125.733 281.687 125.732C281.963 125.731 282.186 125.507 282.185 125.231C282.184 124.954 281.959 124.731 281.683 124.732ZM281.675 122.232C280.018 122.238 278.679 123.586 278.685 125.242C278.69 126.899 280.038 128.238 281.695 128.232C283.352 128.227 284.69 126.879 284.685 125.222C284.679 123.565 283.331 122.227 281.675 122.232ZM234.233 139.394C234.232 139.118 234.455 138.893 234.731 138.892C235.007 138.891 235.232 139.114 235.233 139.391C235.234 139.667 235.011 139.891 234.734 139.892C234.458 139.893 234.234 139.67 234.233 139.394ZM231.704 130.903C231.428 130.903 231.205 131.128 231.206 131.404C231.207 131.68 231.431 131.903 231.707 131.903C231.983 131.902 232.206 131.677 232.206 131.401C232.205 131.125 231.98 130.902 231.704 130.903ZM210.376 181.475C210.375 181.199 210.598 180.975 210.874 180.974C211.15 180.973 211.375 181.196 211.376 181.472C211.377 181.748 211.154 181.973 210.878 181.974C210.602 181.975 210.377 181.752 210.376 181.475ZM197.721 136.018C197.445 136.019 197.222 136.244 197.223 136.52C197.224 136.796 197.448 137.019 197.725 137.018C198.001 137.017 198.224 136.793 198.223 136.517C198.222 136.24 197.997 136.017 197.721 136.018ZM177.175 122.588C177.174 122.312 177.397 122.087 177.674 122.087C177.95 122.086 178.174 122.309 178.175 122.585C178.176 122.861 177.953 123.086 177.677 123.087C177.401 123.087 177.176 122.864 177.175 122.588ZM171.915 193.107C171.639 193.107 171.416 193.332 171.417 193.608C171.418 193.884 171.643 194.107 171.919 194.107C172.195 194.106 172.418 193.881 172.417 193.605C172.416 193.329 172.192 193.106 171.915 193.107ZM125.448 202.765C125.447 202.489 125.67 202.264 125.946 202.263C126.222 202.262 126.447 202.485 126.448 202.761C126.449 203.038 126.226 203.262 125.95 203.263C125.674 203.264 125.449 203.041 125.448 202.765ZM121.82 165.277C121.544 165.278 121.321 165.503 121.322 165.779C121.323 166.055 121.548 166.278 121.824 166.277C122.1 166.276 122.323 166.051 122.322 165.775C122.321 165.499 122.096 165.276 121.82 165.277ZM141.203 130.711C141.202 130.435 141.425 130.21 141.701 130.209C141.977 130.208 142.202 130.431 142.203 130.707C142.204 130.984 141.981 131.208 141.704 131.209C141.428 131.21 141.204 130.987 141.203 130.711ZM138.703 130.719C138.697 129.062 140.036 127.715 141.692 127.709C143.349 127.703 144.697 129.042 144.703 130.699C144.708 132.356 143.37 133.703 141.713 133.709C140.056 133.715 138.708 132.376 138.703 130.719ZM162.609 103.138C162.333 103.139 162.11 103.363 162.111 103.639C162.112 103.916 162.336 104.139 162.612 104.138C162.888 104.137 163.112 103.912 163.111 103.636C163.11 103.36 162.885 103.137 162.609 103.138ZM142.128 108.707C142.127 108.431 142.35 108.207 142.626 108.206C142.902 108.205 143.127 108.428 143.128 108.704C143.129 108.98 142.906 109.205 142.629 109.206C142.353 109.207 142.129 108.984 142.128 108.707ZM142.038 229.208C141.762 229.209 141.539 229.434 141.54 229.71C141.541 229.986 141.765 230.209 142.042 230.208C142.318 230.208 142.541 229.983 142.54 229.707C142.539 229.431 142.314 229.208 142.038 229.208ZM265.818 311.287C265.818 311.011 266.041 310.787 266.317 310.786C266.593 310.785 266.818 311.008 266.818 311.284C266.819 311.56 266.596 311.785 266.32 311.786C266.044 311.787 265.819 311.564 265.818 311.287ZM232.337 316.901C232.061 316.902 231.838 317.127 231.839 317.403C231.84 317.679 232.065 317.902 232.341 317.901C232.617 317.9 232.84 317.676 232.839 317.4C232.838 317.124 232.614 316.9 232.337 316.901ZM198.14 259.018C197.864 259.019 197.641 259.243 197.642 259.519C197.643 259.795 197.867 260.019 198.143 260.018C198.42 260.017 198.643 259.792 198.642 259.516C198.641 259.24 198.416 259.017 198.14 259.018ZM175.788 302.594C175.787 302.318 176.01 302.093 176.287 302.092C176.563 302.091 176.787 302.314 176.788 302.591C176.789 302.867 176.566 303.091 176.29 303.092C176.014 303.093 175.789 302.87 175.788 302.594ZM173.288 302.602C173.283 300.946 174.621 299.598 176.278 299.592C177.935 299.587 179.283 300.925 179.288 302.582C179.294 304.239 177.955 305.587 176.299 305.592C174.642 305.598 173.294 304.259 173.288 302.602ZM126.321 312.263C126.045 312.263 125.822 312.488 125.823 312.764C125.824 313.04 126.048 313.263 126.324 313.263C126.601 313.262 126.824 313.037 126.823 312.761C126.822 312.485 126.597 312.262 126.321 312.263ZM113.877 328.805C113.876 328.529 114.099 328.304 114.376 328.303C114.652 328.302 114.876 328.525 114.877 328.802C114.878 329.078 114.655 329.302 114.379 329.303C114.103 329.304 113.878 329.081 113.877 328.805ZM71.059 235.45C70.7829 235.451 70.5598 235.676 70.5607 235.952C70.5617 236.228 70.7863 236.451 71.0624 236.45C71.3386 236.449 71.5617 236.225 71.5607 235.949C71.5598 235.672 71.3352 235.449 71.059 235.45ZM113.642 259.805C113.641 259.529 113.864 259.305 114.141 259.304C114.417 259.303 114.641 259.526 114.642 259.802C114.643 260.078 114.42 260.303 114.144 260.304C113.868 260.305 113.643 260.082 113.642 259.805ZM93.2054 278.375C92.9292 278.376 92.7061 278.601 92.7071 278.877C92.708 279.153 92.9326 279.376 93.2088 279.375C93.4849 279.374 93.708 279.15 93.7071 278.873C93.7061 278.597 93.4815 278.374 93.2054 278.375ZM384.627 254.882C384.626 254.606 384.849 254.382 385.125 254.381C385.401 254.38 385.626 254.603 385.627 254.879C385.628 255.155 385.405 255.38 385.129 255.381C384.853 255.382 384.628 255.159 384.627 254.882ZM325.204 277.585C324.928 277.586 324.705 277.81 324.706 278.087C324.707 278.363 324.931 278.586 325.207 278.585C325.484 278.584 325.707 278.359 325.706 278.083C325.705 277.807 325.48 277.584 325.204 277.585Z" fill="#960F1A" fill-opacity="0.5" shape-rendering="crispEdges"/>
</g>
<defs>
<filter id="filter0_df_280_488" x="0.445312" y="0" width="668.467" height="344.371" filterUnits="userSpaceOnUse" color-interpolation-filters="sRGB">
<feFlood flood-opacity="0" result="BackgroundImageFix"/>
<feColorMatrix in="SourceAlpha" type="matrix" values="0 0 0 0 0 0 0 0 0 0 0 0 0 0 0 0 0 0 127 0" result="hardAlpha"/>
<feOffset/>
<feGaussianBlur stdDeviation="2"/>
<feComposite in2="hardAlpha" operator="out"/>
<feColorMatrix type="matrix" values="0 0 0 0 0.117647 0 0 0 0 0.117647 0 0 0 0 0.117647 0 0 0 1 0"/>
<feBlend mode="normal" in2="BackgroundImageFix" result="effect1_dropShadow_280_488"/>
<feBlend mode="normal" in="SourceGraphic" in2="effect1_dropShadow_280_488" result="shape"/>
<feGaussianBlur stdDeviation="2" result="effect2_foregroundBlur_280_488"/>
</filter>
</defs>
</svg>
